<svg width="500" height="500" viewBox="0 0 500 500" fill="none" xmlns="http://www.w3.org/2000/svg">
<g clip-path="url(#clip0_76_851)">
<path d="M104 38H396C435.764 38 468 70.2355 468 110V512H32V110C32 70.2355 64.2355 38 104 38Z" fill="#F9F9F9" stroke="#151515" stroke-width="16"/>
<rect opacity="0.35" x="390.206" y="76.5385" width="25.7562" height="12.9231" rx="3.23077" stroke="black" stroke-width="1.07692"/>
<path opacity="0.4" d="M417.574 81.0256V85.3333C418.438 84.9685 419 84.1198 419 83.1795C419 82.2392 418.438 81.3905 417.574 81.0256" fill="black"/>
<rect x="391.814" y="78.1538" width="22.5399" height="9.69231" rx="1.4359" fill="black"/>
<path fill-rule="evenodd" clip-rule="evenodd" d="M372.675 79.3033C375.322 79.3034 377.869 80.27 379.787 82.0032C379.932 82.137 380.163 82.1353 380.305 81.9994L381.686 80.675C381.758 80.6061 381.798 80.5127 381.798 80.4155C381.797 80.3184 381.756 80.2255 381.683 80.1573C376.647 75.5716 368.702 75.5716 363.666 80.1573C363.593 80.2254 363.552 80.3183 363.551 80.4155C363.551 80.5126 363.591 80.606 363.663 80.675L365.044 81.9994C365.186 82.1355 365.418 82.1372 365.562 82.0032C367.481 80.2698 370.027 79.3033 372.675 79.3033ZM372.673 83.7272C374.118 83.7271 375.511 84.2635 376.582 85.2322C376.727 85.3697 376.955 85.3667 377.097 85.2255L378.467 83.8425C378.539 83.77 378.579 83.6716 378.578 83.5693C378.577 83.4671 378.535 83.3695 378.461 83.2984C375.2 80.2681 370.15 80.2681 366.888 83.2984C366.815 83.3695 366.772 83.4671 366.772 83.5694C366.771 83.6717 366.811 83.7701 366.883 83.8425L368.253 85.2255C368.394 85.3667 368.622 85.3697 368.767 85.2322C369.837 84.2641 371.23 83.7278 372.673 83.7272ZM375.357 86.6555C375.359 86.7659 375.32 86.8724 375.248 86.9498L372.931 89.5229C372.863 89.5985 372.771 89.6411 372.674 89.6411C372.578 89.6411 372.485 89.5985 372.417 89.5229L370.1 86.9498C370.028 86.8723 369.989 86.7658 369.991 86.6554C369.993 86.545 370.036 86.4404 370.111 86.3664C371.591 84.9891 373.758 84.9891 375.237 86.3664C375.312 86.4404 375.355 86.5451 375.357 86.6555Z" fill="black"/>
<path fill-rule="evenodd" clip-rule="evenodd" d="M355.608 77.9296C355.608 77.2604 355.095 76.718 354.463 76.718H353.318C352.686 76.718 352.173 77.2604 352.173 77.9296V88.4296C352.173 89.0987 352.686 89.6411 353.318 89.6411H354.463C355.095 89.6411 355.608 89.0987 355.608 88.4296V77.9296ZM347.629 79.3026H348.774C349.407 79.3026 349.919 79.8581 349.919 80.5432V88.4005C349.919 89.0857 349.407 89.6411 348.774 89.6411H347.629C346.997 89.6411 346.485 89.0857 346.485 88.4005V80.5432C346.485 79.8581 346.997 79.3026 347.629 79.3026ZM342.978 82.1026H341.834C341.201 82.1026 340.689 82.6651 340.689 83.359V88.3847C340.689 89.0786 341.201 89.6411 341.834 89.6411H342.978C343.611 89.6411 344.123 89.0786 344.123 88.3847V83.359C344.123 82.6651 343.611 82.1026 342.978 82.1026ZM337.29 84.6872H336.145C335.513 84.6872 335 85.2417 335 85.9257V88.4026C335 89.0866 335.513 89.6411 336.145 89.6411H337.29C337.922 89.6411 338.435 89.0866 338.435 88.4026V85.9257C338.435 85.2417 337.922 84.6872 337.29 84.6872Z" fill="black"/>
<rect x="195" y="68" width="110" height="30" rx="15" fill="#151515"/>
<rect x="59" y="434" width="56" height="56" rx="28" fill="#F1F1F1"/>
<rect opacity="0.99" x="59" y="434" width="56" height="56" rx="28" fill="url(#paint0_linear_76_851)"/>
<path d="M103.474 454.623C100.611 454.623 98.2796 452.292 98.2796 449.429C98.2796 449.416 98.2796 449.407 98.2796 449.394C98.1475 449.385 98.0122 449.378 97.8737 449.378L97.8297 449.432L97.836 449.378H94.6899L91.1569 454.053L91.7232 449.378H83.4836L79.9506 454.053L80.5169 449.378H75.7537L75.76 449.432L75.7128 449.378C72.0508 449.378 69.3672 452.823 70.2607 456.372L72.8971 468.812C73.605 471.63 76.1407 473.606 79.0477 473.606H88.0454L91.5753 470.145L87.9448 479.297L96.8576 474.902C98.525 474.081 99.7488 472.565 100.202 470.762L103.329 456.372C103.477 455.781 103.524 455.192 103.486 454.62C103.483 454.62 103.477 454.62 103.474 454.62V454.623ZM80.2746 465.933C78.4153 465.933 76.9052 464.426 76.9052 462.563C76.9052 460.701 78.4122 459.194 80.2746 459.194C82.1371 459.194 83.6441 460.701 83.6441 462.563C83.6441 464.426 82.1371 465.933 80.2746 465.933ZM93.9758 465.933C92.1164 465.933 90.6063 464.426 90.6063 462.563C90.6063 460.701 92.1133 459.194 93.9758 459.194C95.8382 459.194 97.3452 460.701 97.3452 462.563C97.3452 464.426 95.8382 465.933 93.9758 465.933Z" fill="white"/>
<path d="M103.475 446.544C101.883 446.544 100.59 447.834 100.59 449.429C100.59 449.781 100.656 450.118 100.772 450.429C100.779 450.451 100.788 450.47 100.794 450.492C100.816 450.549 100.842 450.602 100.867 450.656C100.876 450.678 100.889 450.703 100.901 450.725C100.926 450.779 100.955 450.829 100.986 450.879C100.999 450.901 101.011 450.92 101.024 450.942C101.055 450.992 101.087 451.043 101.122 451.093C101.131 451.109 101.144 451.121 101.153 451.137C101.323 451.37 101.531 451.575 101.76 451.748C101.773 451.757 101.788 451.77 101.801 451.779C101.851 451.817 101.905 451.851 101.958 451.883C101.974 451.892 101.993 451.905 102.009 451.914C102.062 451.946 102.119 451.977 102.175 452.006C102.191 452.015 102.207 452.021 102.223 452.028C102.282 452.056 102.345 452.084 102.408 452.109C102.415 452.109 102.421 452.112 102.427 452.116C102.751 452.241 103.104 452.314 103.472 452.314C105.064 452.314 106.357 451.024 106.357 449.429C106.357 447.834 105.067 446.544 103.472 446.544H103.475Z" fill="white"/>
<rect x="125.5" y="434.5" width="315" height="55" rx="27.5" fill="white" stroke="#DDDDDD"/>
<path d="M166.258 452.086V457.945H169.375V459.492H166.258V465.258H164.406V452.086H166.258ZM149.969 462.703C151.586 462.703 153.461 462.691 155.43 462.609V460.57C152.875 460.277 151.164 458.777 151.188 456.609C151.164 454.219 153.297 452.625 156.344 452.625C159.391 452.625 161.523 454.219 161.523 456.609C161.523 458.766 159.824 460.266 157.281 460.547V462.539C159.25 462.434 161.242 462.258 163.07 461.977L163.211 463.336C158.805 464.133 153.812 464.227 150.203 464.227L149.969 462.703ZM166.258 466.266V472.898H164.406V467.766H152.594V466.266H166.258ZM156.344 454.055C154.281 454.031 152.898 455.062 152.922 456.609C152.898 458.156 154.281 459.188 156.344 459.188C158.383 459.188 159.766 458.156 159.789 456.609C159.766 455.062 158.383 454.031 156.344 454.055ZM189.719 460.875V462.375H181.117V464.438H187.281V469.102H174.906V471.211H187.914V472.664H173.078V467.719H185.477V465.867H173.031V464.438H179.289V462.375H170.734V460.875H189.719ZM187.258 452.766V459.117H173.195V452.766H187.258ZM175.023 454.242V457.641H185.43V454.242H175.023ZM208.656 452.086V467.906H206.805V465.75H202.492V464.414H206.805V452.086H208.656ZM209.172 470.906V472.453H194.359V466.359H196.211V470.906H209.172ZM191.359 461.742C195.25 461.719 200.453 461.695 204.93 461.133L205.047 462.469C203.184 462.762 201.238 462.949 199.328 463.055V467.18H197.477V463.148C195.367 463.242 193.363 463.254 191.617 463.242L191.359 461.742ZM198.203 452.93C201.25 452.93 203.336 454.383 203.359 456.562C203.336 458.789 201.25 460.172 198.203 460.172C195.133 460.172 193.047 458.789 193.047 456.562C193.047 454.383 195.133 452.93 198.203 452.93ZM198.203 454.336C196.164 454.312 194.781 455.227 194.805 456.562C194.781 457.922 196.164 458.812 198.203 458.812C200.172 458.812 201.578 457.922 201.602 456.562C201.578 455.227 200.172 454.312 198.203 454.336ZM230.078 452.062V472.898H228.297V452.062H230.078ZM225.883 452.508V471.844H224.125V461.719H221.453C221.254 465.773 219.531 468.305 216.953 468.305C214.234 468.305 212.477 465.492 212.477 461.062C212.477 456.633 214.234 453.82 216.953 453.82C219.484 453.82 221.195 456.27 221.43 460.195H224.125V452.508H225.883ZM216.953 455.555C215.266 455.555 214.188 457.664 214.211 461.062C214.188 464.438 215.266 466.57 216.953 466.547C218.641 466.57 219.719 464.438 219.719 461.062C219.719 457.664 218.641 455.555 216.953 455.555ZM240.297 457.664C240.297 461.438 242.711 465.234 245.734 466.617L244.633 468.117C242.266 466.898 240.309 464.402 239.383 461.438C238.457 464.555 236.5 467.227 234.133 468.492L232.938 467.016C235.984 465.516 238.422 461.508 238.422 457.664V453.867H240.297V457.664ZM250.234 452.062V472.945H248.406V460.688H243.461V459.188H248.406V452.062H250.234ZM276.016 452.062V456.961H279.156V458.508H276.016V463.172H274.188V452.062H276.016ZM269.945 453.445V454.969H262.539V460.922C266.723 460.922 269.102 460.793 271.891 460.219L272.125 461.742C269.195 462.328 266.711 462.469 262.328 462.469H260.711V453.445H269.945ZM264.648 464.297V466.898H274.188V464.297H276.016V472.547H262.82V464.297H264.648ZM264.648 471.023H274.188V468.375H264.648V471.023ZM287.523 456.023C287.523 458.742 289.562 461.18 292.633 462.188L291.766 463.641C289.363 462.855 287.547 461.191 286.656 459.094C285.754 461.484 283.832 463.348 281.336 464.25L280.398 462.773C283.516 461.719 285.695 459.023 285.719 456.023V455.133H280.961V453.609H292.211V455.133H287.523V456.023ZM296.758 452.062V457.383H299.898V458.93H296.758V464.648H294.93V452.062H296.758ZM290.078 465.211C294.367 465.211 296.945 466.617 296.945 469.008C296.945 471.445 294.367 472.852 290.078 472.852C285.789 472.852 283.164 471.445 283.164 469.008C283.164 466.617 285.789 465.211 290.078 465.211ZM290.078 466.688C286.938 466.688 284.992 467.555 285.016 469.008C284.992 470.508 286.938 471.375 290.078 471.375C293.242 471.375 295.164 470.508 295.164 469.008C295.164 467.555 293.242 466.688 290.078 466.688ZM317.336 452.062V460.664H320.828V462.188H317.336V472.898H315.508V452.062H317.336ZM313.492 455.414V456.938H301.094V455.414H306.461V452.32H308.289V455.414H313.492ZM307.398 458.672C310.352 458.672 312.484 460.641 312.508 463.453C312.484 466.266 310.352 468.234 307.398 468.234C304.422 468.234 302.266 466.266 302.289 463.453C302.266 460.641 304.422 458.672 307.398 458.672ZM307.398 460.219C305.453 460.219 304.023 461.578 304.047 463.453C304.023 465.352 305.453 466.688 307.398 466.664C309.32 466.688 310.727 465.352 310.75 463.453C310.727 461.578 309.32 460.219 307.398 460.219ZM339.18 452.062V472.898H337.328V452.062H339.18ZM333.016 454.336C332.992 460.336 330.203 465.633 323.219 468.984L322.211 467.484C327.848 464.812 330.719 460.816 331.141 455.836H323.172V454.336H333.016Z" fill="#BBBBBB"/>
</g>
<defs>
<linearGradient id="paint0_linear_76_851" x1="70.5" y1="442" x2="101.5" y2="485" gradientUnits="userSpaceOnUse">
<stop stop-color="#F1F1F1"/>
<stop offset="1" stop-color="#DDDDDD"/>
</linearGradient>
<clipPath id="clip0_76_851">
<rect width="500" height="500" fill="white"/>
</clipPath>
</defs>
</svg>
